<?xml version="1.0" encoding="UTF-8"?> <svg xmlns="http://www.w3.org/2000/svg" id="Layer_1" data-name="Layer 1" viewBox="0 0 128 128"><defs><style>.cls-1{fill:#3c3c3b;}</style></defs><title>TravelWithHeart</title><path class="cls-1" d="M57.99805,56.69629a11.32619,11.32619,0,0,0-3.56934-8.13086,11.60051,11.60051,0,0,0-16.02881.352,11.5991,11.5991,0,0,0-16.02881-.352A11.40655,11.40655,0,0,0,22.1416,64.919L35.33105,78.1084a4.33924,4.33924,0,0,0,6.1377,0L54.6582,64.919A11.31734,11.31734,0,0,0,57.99805,56.69629ZM40.76172,77.40137a3.42053,3.42053,0,0,1-4.72363,0L22.84863,64.21191a10.33305,10.33305,0,0,1,7.28174-17.69238,10.73354,10.73354,0,0,1,7.59424,3.13672l.32129.32178a.50042.50042,0,0,0,.70752,0l.32178-.32178a10.5923,10.5923,0,0,1,14.666-.36426,10.40532,10.40532,0,0,1,.21,14.91992Z"></path><path class="cls-1" d="M30.12109,49.23193a7.50429,7.50429,0,0,0-5.18652,2.03955.50014.50014,0,0,0,.6875.72657,6.50728,6.50728,0,0,1,4.499-1.76612.5.5,0,1,0,0-1Z"></path><path class="cls-1" d="M46.66846,66.22363l-6.71778,6.71778a.49995.49995,0,1,0,.707.707l6.71778-6.71778a.49995.49995,0,0,0-.707-.707Z"></path><path class="cls-1" d="M51.31641,61.57568l-2.10059,2.10059a.49995.49995,0,1,0,.707.707l2.10059-2.10059a.49995.49995,0,0,0-.707-.707Z"></path><path class="cls-1" d="M25.60059,44.48291a.49972.49972,0,0,0,.5-.5V31.8418a.5.5,0,0,0-1,0V43.98291A.49971.49971,0,0,0,25.60059,44.48291Z"></path><path class="cls-1" d="M38.40088,46.1416a.49971.49971,0,0,0,.5-.5V31.8418a.5.5,0,0,0-1,0V45.6416A.49971.49971,0,0,0,38.40088,46.1416Z"></path><path class="cls-1" d="M51.20068,44.48389a.49972.49972,0,0,0,.5-.5V31.8418a.5.5,0,0,0-1,0V43.98389A.49972.49972,0,0,0,51.20068,44.48389Z"></path><path class="cls-1" d="M25.60059,70.74121a.49971.49971,0,0,0-.5.5V93.042a.5.5,0,0,0,1,0V71.24121A.49972.49972,0,0,0,25.60059,70.74121Z"></path><path class="cls-1" d="M38.40088,81.37793a.49971.49971,0,0,0-.5.5V93.042a.5.5,0,0,0,1,0V81.87793A.49971.49971,0,0,0,38.40088,81.37793Z"></path><path class="cls-1" d="M103.20117,68.43652H98.81073a15.68147,15.68147,0,0,0-31.22009,0H65.501V29.0415a6.50753,6.50753,0,0,0-6.5-6.5h-9.3003V20.7002h1.5a1.5,1.5,0,0,0,0-3H25.60059a1.5,1.5,0,0,0,0,3h1.5v1.8413H17.79932a6.50753,6.50753,0,0,0-6.5,6.5V95.8418a6.50753,6.50753,0,0,0,6.5,6.5h.90136v3.22656a3.69419,3.69419,0,0,0,3.68994,3.69043h.01026a3.69418,3.69418,0,0,0,3.68994-3.69043V102.3418H49.70068v6.458a1.50007,1.50007,0,0,0,1.5,1.5h64.00049a1.50038,1.50038,0,0,0,1.5-1.5V81.93652A13.51476,13.51476,0,0,0,103.20117,68.43652Zm10.5,13.5v20.09095a6.87721,6.87721,0,0,0-3.001,1.51263v-.27252a.5.5,0,0,0-1,0v1.34289a6.86473,6.86473,0,0,0-1.24091,2.68933h-50.048a6.88637,6.88637,0,0,0-1.75519-3.29748.49468.49468,0,0,0,.04455-.20252v-1.5a.5.5,0,0,0-1,0v.87012a6.85249,6.85249,0,0,0-3-1.22589V81.93652a10.5118,10.5118,0,0,1,10.5-10.5h40.00049A10.51148,10.51148,0,0,1,113.70117,81.93652ZM83.20117,55.25a14.70684,14.70684,0,0,1,14.6095,13.18652h-29.22A14.70711,14.70711,0,0,1,83.20117,55.25ZM28.10059,20.7002H48.70068v1.8413H28.10059Zm-3.00977,84.86816a2.6932,2.6932,0,0,1-2.68994,2.69043h-.01026a2.6932,2.6932,0,0,1-2.68994-2.69043V102.3418h5.39014Zm-7.2915-6.22656a3.50425,3.50425,0,0,1-3.5-3.5V29.0415a3.50425,3.50425,0,0,1,3.5-3.5H59.001a3.50426,3.50426,0,0,1,3.5,3.5V68.472a13.48714,13.48714,0,0,0-10.8003,6.42933v-3.6601a.5.5,0,0,0-1,0v5.616a13.41652,13.41652,0,0,0-1,5.07934V99.3418Zm34.90136,3.61267a5.90846,5.90846,0,0,1,4.6792,4.34533h-4.6792Zm56.79,4.34533a5.911,5.911,0,0,1,4.21045-4.24084v4.24084Z"></path><path class="cls-1" d="M56.20068,89.95508a.49972.49972,0,0,0-.5.5V93.416a.5.5,0,0,0,1,0V90.45508A.49971.49971,0,0,0,56.20068,89.95508Z"></path><path class="cls-1" d="M109.7002,81.93555v.5625a.5.5,0,0,0,1,0v-.5625a7.46515,7.46515,0,0,0-.43555-2.52051.49978.49978,0,1,0-.94141.33594A6.4845,6.4845,0,0,1,109.7002,81.93555Z"></path><path class="cls-1" d="M110.2002,90.88184a.49971.49971,0,0,0-.5.5v2.96093a.5.5,0,0,0,1,0V91.38184A.49972.49972,0,0,0,110.2002,90.88184Z"></path><path class="cls-1" d="M110.2002,84.959a.49972.49972,0,0,0-.5.5V88.4209a.5.5,0,1,0,1,0V85.459A.49972.49972,0,0,0,110.2002,84.959Z"></path><path class="cls-1" d="M110.2002,96.80469a.49971.49971,0,0,0-.5.5v2.96093a.5.5,0,1,0,1,0V97.30469A.49972.49972,0,0,0,110.2002,96.80469Z"></path><path class="cls-1" d="M57.20654,78.28906a.50017.50017,0,0,0-.67383.21485,7.42154,7.42154,0,0,0-.82226,3.041.49932.49932,0,0,0,.47363.52442l.02637.001a.50039.50039,0,0,0,.499-.47461,6.4203,6.4203,0,0,1,.71192-2.63281A.50073.50073,0,0,0,57.20654,78.28906Z"></path><path class="cls-1" d="M56.20068,84.03223a.49972.49972,0,0,0-.5.5v2.96093a.5.5,0,0,0,1,0V84.53223A.49971.49971,0,0,0,56.20068,84.03223Z"></path><path class="cls-1" d="M56.20068,95.87793a.49972.49972,0,0,0-.5.5v2.96094a.5.5,0,0,0,1,0V96.37793A.49971.49971,0,0,0,56.20068,95.87793Z"></path><path class="cls-1" d="M61.34863,74.667a7.42294,7.42294,0,0,0-2.81884,1.4043.49994.49994,0,1,0,.624.78125,6.43839,6.43839,0,0,1,2.44189-1.2168.49988.49988,0,0,0-.24707-.96875Z"></path><path class="cls-1" d="M76.26074,75.43555h2.96094a.5.5,0,1,0,0-1H76.26074a.5.5,0,0,0,0,1Z"></path><path class="cls-1" d="M70.33789,75.43555h2.96094a.5.5,0,0,0,0-1H70.33789a.5.5,0,1,0,0,1Z"></path><path class="cls-1" d="M82.18359,75.43555h2.96094a.5.5,0,0,0,0-1H82.18359a.5.5,0,0,0,0,1Z"></path><path class="cls-1" d="M64.41455,75.43555H67.376a.5.5,0,0,0,0-1H64.41455a.5.5,0,0,0,0,1Z"></path><path class="cls-1" d="M88.10645,75.43555h2.96093a.5.5,0,0,0,0-1H88.10645a.5.5,0,0,0,0,1Z"></path><path class="cls-1" d="M94.0293,75.43555h2.96093a.5.5,0,0,0,0-1H94.0293a.5.5,0,0,0,0,1Z"></path><path class="cls-1" d="M105.62207,75.90332a6.56525,6.56525,0,0,1,2.26074,1.5293.5.5,0,0,0,.72071-.69336,7.47885,7.47885,0,0,0-2.6084-1.76367.5.5,0,0,0-.37305.92773Z"></path><path class="cls-1" d="M99.95215,75.43555h2.96094a.5.5,0,0,0,0-1H99.95215a.5.5,0,1,0,0,1Z"></path><path class="cls-1" d="M73.792,90.93066l7.50977,7.50879a2.68534,2.68534,0,0,0,3.79883,0l7.50879-7.50879a6.70813,6.70813,0,0,0-.13477-9.61914,6.81766,6.81766,0,0,0-9.27344.05762,6.81587,6.81587,0,0,0-9.27441-.05762,6.70813,6.70813,0,0,0-.13477,9.61914Zm.82227-8.89257a5.613,5.613,0,0,1,3.87793-1.52051,5.89837,5.89837,0,0,1,4.17187,1.72363l.1836.18359a.49963.49963,0,0,0,.35351.14649h.001a.49653.49653,0,0,0,.35351-.14746l.18164-.18262a5.8137,5.8137,0,0,1,8.04981-.20312,5.708,5.708,0,0,1,.11523,8.18554l-7.50879,7.50879a1.7255,1.7255,0,0,1-2.38476,0L74.499,90.22363a5.70806,5.70806,0,0,1,.11524-8.18554Z"></path></svg> 