<?xml version="1.0" encoding="UTF-8"?> <svg xmlns="http://www.w3.org/2000/svg" id="Layer_1" data-name="Layer 1" viewBox="0 0 128 128"><defs><style>.cls-1{fill:#3c3c3b;}</style></defs><title>Philanthropy</title><path class="cls-1" d="M115.3584,47.93555a29.755,29.755,0,0,0-9.37891-21.36621C94.38379,15.59375,75.61914,15.97021,64,27.35645c-11.61719-11.38526-30.3833-11.76368-41.98-.78711A29.9728,29.9728,0,0,0,21.41748,69.543l5.62744,5.627a1.49984,1.49984,0,1,0,2.1211-2.12109L23.53809,67.4209a26.97209,26.97209,0,0,1,.54443-38.67285c10.50146-9.939,27.55566-9.51319,38.01709.94824l.83984.83984L90.46582,58.063a2.54256,2.54256,0,0,1,.67871,2.38428,2.40353,2.40353,0,0,1-1.57812,1.772,11.4576,11.4576,0,0,1-11.93067-2.74463L70.7959,52.63477a12.36639,12.36639,0,0,0-17.46778,0l-5.43206,5.43206a15.3309,15.3309,0,0,1-6.17829-12.29925,15.49958,15.49958,0,0,1,.21436-2.56983.5001.5001,0,0,0-.98633-.166A16.36516,16.36516,0,0,0,47.17993,58.783l-9.386,9.386-3.63819,3.63769a7.32193,7.32193,0,0,0,0,10.34375c.01123.01172.023.02246.03467.03418A7.29331,7.29331,0,0,0,39.33057,84.291a7.36749,7.36749,0,0,0,.98553-.07435,7.29854,7.29854,0,0,0,2.0423,6.13587l.0249.02539a7.2914,7.2914,0,0,0,5.17188,2.13867,7.36867,7.36867,0,0,0,.98632-.07446,7.29978,7.29978,0,0,0,2.04248,6.136l.02442.02442a7.29056,7.29056,0,0,0,5.17187,2.13867,7.36976,7.36976,0,0,0,.91474-.06415,7.39852,7.39852,0,0,0,2.13556,6.14814l.02392.02343a7.43989,7.43989,0,0,0,5.23487,2.18946,6.90135,6.90135,0,0,0,3.60687-1.02741A7.42023,7.42023,0,0,0,79.46838,100.999a7.52137,7.52137,0,0,0,1.04432.08112,7.4386,7.4386,0,0,0,7.4375-7.4375,7.52,7.52,0,0,0-.08118-1.04492,7.49523,7.49523,0,0,0,1.04016.081A7.41452,7.41452,0,0,0,96.26239,84.205a7.5219,7.5219,0,0,0,1.04425.08111,7.43423,7.43423,0,0,0,6.14465-11.62134L106.583,69.542A29.73427,29.73427,0,0,0,115.3584,47.93555ZM75.25391,105.17773a4.43506,4.43506,0,1,1,0-6.27636A4.44651,4.44651,0,0,1,75.25391,105.17773ZM84.9502,93.64258a4.43781,4.43781,0,1,1-1.29981-3.1377A4.40444,4.40444,0,0,1,84.9502,93.64258Zm7.09765-5.25879a4.43506,4.43506,0,1,1,0-6.27637A4.44652,4.44652,0,0,1,92.04785,88.38379Zm8.39746-8.39746a4.43751,4.43751,0,1,1,0-6.27539A4.4124,4.4124,0,0,1,100.44531,79.98633Zm.852-9.4101a7.43523,7.43523,0,0,0-11.42816,6.2724,7.52067,7.52067,0,0,0,.08118,1.04492A7.40757,7.40757,0,0,0,81.557,86.28619a7.522,7.522,0,0,0-1.04425-.08111,7.43858,7.43858,0,0,0-7.4375,7.4375,7.52318,7.52318,0,0,0,.08117,1.045,7.41945,7.41945,0,0,0-7.50543,11.0152,4.28765,4.28765,0,0,1-4.69684-.99671l-.01953-.01953a4.18256,4.18256,0,0,1-.18408-5.88281l.38745-.38739,3.4519-3.45148.00049-.00073,3.728-3.72778a1.49984,1.49984,0,0,0-2.12109-2.1211l-7.18042,7.18-.18628.18622a4.31992,4.31992,0,0,1-6.0835.01757l-.02-.0205a4.3127,4.3127,0,0,1,.00049-6.10059l3.43011-3.431,4.31452-4.31506a1.49984,1.49984,0,0,0-2.1211-2.1211l-4.10492,4.10541-.003.002L50.606,88.25684a4.31993,4.31993,0,0,1-6.0835.01757l-.02051-.0205a4.31949,4.31949,0,0,1,0-6.10157l3.63819-3.63769.00048-.0008,4.10694-4.10662a1.49984,1.49984,0,1,0-2.1211-2.1211l-7.7456,7.74512a4.32067,4.32067,0,0,1-6.10107,0c-.00928-.00977-.01856-.01855-.02833-.02734a4.32049,4.32049,0,0,1,.0254-6.07618L39.87109,70.334h0L55.44922,54.75586a9.36393,9.36393,0,0,1,13.22558,0l6.83985,6.83984a14.43513,14.43513,0,0,0,15.03223,3.459,5.41623,5.41623,0,0,0,3.5205-3.93408,5.52449,5.52449,0,0,0-1.48047-5.17872L66.12653,29.48108c10.47979-10.24652,27.36468-10.60223,37.79046-.733a26.97151,26.97151,0,0,1,.54492,38.67187Z"></path><path class="cls-1" d="M42.07861,41.104a.49985.49985,0,0,0,.47266-.33691,15.30339,15.30339,0,0,1,1.78662-3.57764.49973.49973,0,0,0-.82812-.55957,16.27994,16.27994,0,0,0-1.90381,3.811.5.5,0,0,0,.47265.66308Z"></path></svg> 