<?xml version="1.0" encoding="UTF-8"?> <svg xmlns="http://www.w3.org/2000/svg" id="Layer_1" data-name="Layer 1" viewBox="0 0 128 128"><defs><style>.cls-1{fill:#3c3c3b;}</style></defs><title>Guide_02</title><path class="cls-1" d="M41.626,35.82373H68.14014c.01989.0036.0379.01135.0581.01416a1.49784,1.49784,0,0,1,1.30762,1.48731v6.17773a1.50007,1.50007,0,0,0,1.5,1.5h2.96777a1.5,1.5,0,0,0,0-3H72.50586V37.3252a4.42774,4.42774,0,0,0-.26953-1.50147H78.5v6.24609a14.5,14.5,0,0,1-29,0V40.40234a1.5,1.5,0,0,0-3,0v1.66748a17.5,17.5,0,0,0,35,0V35.82373h4.874a1.50007,1.50007,0,0,0,1.5-1.5,8.3768,8.3768,0,0,0-5.4342-7.82873,19.23561,19.23561,0,0,0-36.879-.00025,8.37682,8.37682,0,0,0-5.43481,7.829A1.49976,1.49976,0,0,0,41.626,35.82373Zm37.45593-9.87061h-8.2002a14.367,14.367,0,0,0-4.79486-10.06964A16.22328,16.22328,0,0,1,79.08191,25.95312ZM64,15.73584c.10846,0,.21448.01141.32251.01355a13.37528,13.37528,0,0,1,5.5592,10.20373H58.11823a13.33139,13.33139,0,0,1,5.5816-10.20465C63.80042,15.74664,63.89905,15.73584,64,15.73584Zm-2.1059.14978a14.34163,14.34163,0,0,0-4.79834,10.0675H48.91711A16.20463,16.20463,0,0,1,61.8941,15.88562Zm-13.398,13.0675H79.50391a5.38,5.38,0,0,1,5.15722,3.87061H43.33887A5.38005,5.38005,0,0,1,48.49609,28.95312Z"></path><path class="cls-1" d="M90.86328,64.86523a11.42168,11.42168,0,0,0-8.1289-3.36669h-.00293L77.21484,61.5a2.51559,2.51559,0,0,0-1.76757.73193L64,73.67871,52.55322,62.23242A2.48251,2.48251,0,0,0,50.78662,61.5L45.269,61.49854h-.00342A11.498,11.498,0,0,0,33.76855,72.99609v36.20215a6.50753,6.50753,0,0,0,6.5,6.5h47.4629a6.50753,6.50753,0,0,0,6.5-6.5V72.99609A11.42387,11.42387,0,0,0,90.86328,64.86523Zm.36817,44.333a3.50425,3.50425,0,0,1-3.5,3.5H64.5V99.98242a.5.5,0,1,0-1,0v12.71582H40.26855a3.50425,3.50425,0,0,1-3.5-3.5V72.99609a8.49719,8.49719,0,0,1,8.49707-8.49755h.00245l5.31.00146L62.93945,76.86035a1.473,1.473,0,0,0,.56055.3421V80.544a.5.5,0,0,0,1,0v-3.3415a1.473,1.473,0,0,0,.56055-.3421L77.42188,64.5l5.30957-.00146h.00293a8.49636,8.49636,0,0,1,8.49707,8.49755Z"></path><path class="cls-1" d="M78.8584,66.49805a.49971.49971,0,0,0-.5.5V88.00684a.501.501,0,0,1-.5.5h-.62091L76.93066,86.209a2.50086,2.50086,0,0,0-1.123-1.77246,2.459,2.459,0,0,0-2.04981-.292,8.805,8.805,0,0,1-4.84765.04981v-.55567L68.91,83.63818l.00013-.00048-.00391-2.26758a6.03227,6.03227,0,0,0,4.69531-.01038v1.48108a.5.5,0,1,0,1,0v-2.293c0-.01275-.00635-.02337-.00726-.03589-.00092-.0122.0033-.02417.00146-.03637l.00013-.00226-.00013-.0022a.50032.50032,0,0,0-.2315-.49847,6.02639,6.02639,0,0,0-6.22168-.001.49738.49738,0,0,0-.22357.52447c-.0019.01783-.01374.0326-.01374.05073l.00391,2.23242a.43827.43827,0,0,0-.00391.0625l.00476.78277-.0028.0141a.4245.4245,0,0,0,.00293.04981v.41992h-2.502a1.49143,1.49143,0,0,0-2.81628,0H60.2998v-.41992c.00147-.0166.00245-.03321.00245-.04981l-.00141-.007.00385-.79089a.53215.53215,0,0,0-.00293-.05566l.00293-2.23828c0-.01825-.0119-.03315-.01386-.051a.49536.49536,0,0,0-.223-.52319,6.02289,6.02289,0,0,0-6.22217,0,.50076.50076,0,0,0-.2312.49847l-.00012.0022.00012.00226c-.00171.01178.00226.02331.00141.03515-.001.01294-.00751.02393-.00751.03711v2.293a.5.5,0,0,0,1,0V81.36029a6.02851,6.02851,0,0,0,4.69531.00983l-.00293,2.26367-.001.00488v.55567a8.79213,8.79213,0,0,1-4.84668-.04981,2.45809,2.45809,0,0,0-2.0498.291A2.49991,2.49991,0,0,0,51.27979,86.208l-.307,2.29883H50.1416a.50065.50065,0,0,1-.5-.5V66.99805a.5.5,0,0,0-1,0V88.00684a1.50164,1.50164,0,0,0,1.5,1.5h.69757l-1.20733,9.04a.5.5,0,0,0,.23242.49121,9.71871,9.71871,0,0,0,10.20361-.00293.49661.49661,0,0,0,.23193-.47559V96.2334h2.29236a1.49149,1.49149,0,0,0,2.81568,0h2.50232V98.54a.49979.49979,0,0,0,.23242.49512,9.71785,9.71785,0,0,0,10.20312.00293.49829.49829,0,0,0,.23242-.49121l-1.20709-9.04h.48737a1.50164,1.50164,0,0,0,1.5-1.5V66.99805A.49971.49971,0,0,0,78.8584,66.49805ZM73.1308,80.47327a5.05023,5.05023,0,0,1-3.75537-.00116A5.04956,5.04956,0,0,1,73.1308,80.47327Zm-18.05152-.00013a5.05535,5.05535,0,0,1,3.75586-.00122A5.0499,5.0499,0,0,1,55.07928,80.47314ZM50.667,98.35156l1.604-12.01074a1.5025,1.5025,0,0,1,.67431-1.06543,1.47542,1.47542,0,0,1,1.21973-.17383,9.78905,9.78905,0,0,0,5.13476.127V95.51141a8.4213,8.4213,0,0,1-6.89013.637.5.5,0,1,0-.332.94336,9.22733,9.22733,0,0,0,7.22216-.45722V98.3291A8.85318,8.85318,0,0,1,50.667,98.35156ZM60.2998,85.1084H62.5v10.125H60.2998ZM65.5,95.2334V85.1084h2.41016v10.125Zm3.41016,3.0957V96.63428a9.22785,9.22785,0,0,0,7.22851.45556.5.5,0,1,0-.332-.94336,8.4204,8.4204,0,0,1-6.89648-.63482V85.22852a9.80949,9.80949,0,0,0,5.13476-.127,1.47023,1.47023,0,0,1,1.2207.17481,1.5,1.5,0,0,1,.67383,1.06445L77.544,98.35156A8.8601,8.8601,0,0,1,68.91016,98.3291Z"></path></svg> 