<?xml version="1.0" encoding="UTF-8"?> <svg xmlns="http://www.w3.org/2000/svg" id="Layer_1" data-name="Layer 1" viewBox="0 0 128 128"><defs><style>.cls-1{fill:#3c3c3b;}</style></defs><title>TravelExperts</title><path class="cls-1" d="M37.81738,54.6792a1.49976,1.49976,0,0,0,1.5-1.5l-.00049-19.08984a24.39136,24.39136,0,1,1,48.78272.01171V52.34326a1.5,1.5,0,0,0,3,0V34.08936a27.39112,27.39112,0,1,0-54.78223.01171V53.1792A1.49977,1.49977,0,0,0,37.81738,54.6792Z"></path><path class="cls-1" d="M61.148,36.77509a2.64584,2.64584,0,0,1,5.01062-.31751,6.34829,6.34829,0,1,0,.16333-1.53522,3.63164,3.63164,0,0,0-5.304.06665,6.3576,6.3576,0,1,0,.13007,1.78608Zm11.35-5.76679a5.34424,5.34424,0,1,1-5.34168,5.37463c.00092-.01385-.00171-.0274-.00195-.04138A5.3497,5.3497,0,0,1,72.49805,31.0083ZM54.8252,41.69678a5.34424,5.34424,0,1,1,5.34423-5.34424A5.35035,5.35035,0,0,1,54.8252,41.69678Z"></path><path class="cls-1" d="M109.69922,87.27539l-9.37988-9.37988V75.63184c0-8.6543-7.084-15.43311-16.127-15.43311H73.41406V54.3252A22.77629,22.77629,0,0,0,84.46875,34.56787a23.549,23.549,0,0,0-4.584-14.02685,1.49948,1.49948,0,0,0-2.08692-.3125A23.77952,23.77952,0,0,1,63.7085,24.979a23.71433,23.71433,0,0,1-14.10743-4.68457,1.50024,1.50024,0,0,0-2.09179.31446,23.2239,23.2239,0,0,0-4.56055,13.959A22.77406,22.77406,0,0,0,54.00342,54.3252v5.87353H43.22705c-9.043,0-16.12695,6.77881-16.12695,15.43311V108.2334a8.47585,8.47585,0,0,0,8.46631,8.4668h25.0874a1.5,1.5,0,0,0,0-3H35.56641a5.47257,5.47257,0,0,1-5.46631-5.4668V75.63184c0-6.97168,5.76611-12.43311,13.12695-12.43311H50.7002V76.7998a.49833.49833,0,0,0,.28564.45118.48932.48932,0,0,0,.21436.04882.49924.49924,0,0,0,.31591-.1123l8.78-7.15741a9.09962,9.09962,0,0,0,2.113.57166,1.68377,1.68377,0,0,0-.40039,1.08282,1.7002,1.7002,0,1,0,3.40039,0,1.68356,1.68356,0,0,0-.4007-1.08295,9.136,9.136,0,0,0,2.50306-.72833l8.5758,6.99054L65.67578,87.27539a.49963.49963,0,0,0-.14648.35352v32.5166a.5.5,0,0,0,.85351.35351L76.8584,110.02344,87.334,120.499a.49981.49981,0,0,0,.707,0L98.5166,110.02344,108.99219,120.499a.5.5,0,0,0,.85351-.35351V87.62891A.49963.49963,0,0,0,109.69922,87.27539ZM97.31934,75.63184V77.29l-5.328,5.328a7.8084,7.8084,0,0,0-8.62414-.01648L77.2998,76.53418V63.19873h6.89258C91.55371,63.19873,97.31934,68.66016,97.31934,75.63184Zm-9.45118,6.68261a6.80538,6.80538,0,0,1,3.80561,1.29132c.0061.00684.00818.01563.01471.02216a.47943.47943,0,0,0,.09985.06634,6.85046,6.85046,0,0,1,1.93823,8.82038l-5.01074,8.68066a1.17291,1.17291,0,0,1-1.02734.59375h-.001a1.17562,1.17562,0,0,1-1.02832-.59375l-4.97754-8.626a6.88163,6.88163,0,0,1,1.19824-8.30274A6.76954,6.76954,0,0,1,87.86816,82.31445ZM45.94873,34.56787a20.31174,20.31174,0,0,1,3.14648-10.9751A26.59118,26.59118,0,0,0,63.7085,27.979a26.55213,26.55213,0,0,0,14.59423-4.45166,20.67418,20.67418,0,0,1,3.166,11.04053,19.65057,19.65057,0,0,1-10.23828,17.5293,1.49973,1.49973,0,0,0-.81641,1.335V60.313c0,4.07666-3.00781,7.39306-6.70556,7.39306-3.69727,0-6.70508-3.3164-6.70508-7.39306V53.43213a1.49973,1.49973,0,0,0-.81641-1.335C49.96729,48.9126,45.94873,42.03223,45.94873,34.56787Zm5.75147,41.1792V63.19873H54.392A10.29457,10.29457,0,0,0,59.29352,69.557Zm12.0083-3.3623a.7002.7002,0,1,1,.70019-.7002A.701.701,0,0,1,63.7085,72.38477Zm9.317-9.186H76.2998V75.74707l-7.83355-6.38519A10.33591,10.33591,0,0,0,73.02551,63.19873Zm35.82019,55.73975-9.97558-9.97559a.49982.49982,0,0,0-.707,0l-9.97559,9.97559V105.28906a.5.5,0,0,0-1,0v13.64942l-9.8291-9.8291V80.7998a.5.5,0,0,0-1,0v28.30958l-9.8291,9.8291V87.83594l10.3291-10.3291,5.70624,5.70623c-.12873.11029-.25953.21747-.382.33673a7.88063,7.88063,0,0,0-1.3711,9.51172l.00293.00489,4.97852,8.6289a2.16589,2.16589,0,0,0,1.89453,1.09375h.001a2.16318,2.16318,0,0,0,1.89355-1.09375l5.01465-8.68945a7.84439,7.84439,0,0,0-1.7962-9.7829l5.21222-5.21222v28.24414a.5.5,0,1,0,1,0V78.00293l9.833,9.833Z"></path><path class="cls-1" d="M87.6875,93.835a.5.5,0,0,0,0-1A3.353,3.353,0,1,1,91.041,89.48145a.5.5,0,0,0,1,0A4.35352,4.35352,0,1,0,87.6875,93.835Z"></path><path class="cls-1" d="M63.7085,81.5a1.7002,1.7002,0,1,0,1.70068,1.7002A1.702,1.702,0,0,0,63.7085,81.5Zm0,2.40039a.7002.7002,0,1,1,.70019-.70019A.701.701,0,0,1,63.7085,83.90039Z"></path></svg> 